<?xml version="1.0" encoding="utf-8"?>
<!-- Generator: Adobe Illustrator 23.0.5, SVG Export Plug-In . SVG Version: 6.00 Build 0)  -->
<svg version="1.1" id="Layer_1" xmlns="http://www.w3.org/2000/svg" xmlns:xlink="http://www.w3.org/1999/xlink" x="0px" y="0px"
	 viewBox="130 110 140 34" xml:space="preserve">
<style type="text/css">
	.st0{fill:#0FF8B9;}
	.st1{fill:#060740;}
	.st2{fill:#020314;}
	.st3{fill:#FDFEF6;}
	.st4{fill:#0EDFB0;}
</style>
<g>
	<g>
		<g>
			<polygon class="st2" points="179.14,123.97 172.52,123.97 172.52,118.17 170.04,118.17 170.04,132.03 172.52,132.03 
				172.52,126.24 179.14,126.24 179.14,132.03 181.63,132.03 181.63,118.17 179.14,118.17 			"/>
			<path class="st2" d="M191.06,123.36c-0.46-0.46-1-0.82-1.62-1.08c-0.63-0.25-1.31-0.38-2.06-0.38c-0.74,0-1.43,0.13-2.06,0.38
				c-0.63,0.26-1.17,0.61-1.62,1.08c-0.45,0.46-0.81,1.01-1.07,1.64c-0.26,0.63-0.38,1.32-0.38,2.07c0,0.76,0.13,1.46,0.38,2.09
				c0.25,0.63,0.61,1.18,1.07,1.63c0.46,0.46,1,0.81,1.62,1.07c0.63,0.26,1.31,0.38,2.06,0.38c0.59,0,1.15-0.08,1.67-0.24
				c0.52-0.16,0.99-0.39,1.41-0.68c0.42-0.3,0.78-0.65,1.09-1.08c0.3-0.42,0.54-0.89,0.7-1.42h-2.48c-0.25,0.37-0.58,0.66-0.98,0.85
				c-0.41,0.19-0.87,0.29-1.4,0.29c-0.77,0-1.4-0.2-1.89-0.61c-0.49-0.41-0.8-0.96-0.92-1.67h7.88c0.03-0.14,0.04-0.25,0.05-0.34
				c0.01-0.09,0.01-0.18,0.01-0.28c0-0.74-0.13-1.43-0.38-2.07C191.87,124.37,191.51,123.82,191.06,123.36z M184.67,126.04
				c0.18-0.58,0.5-1.03,0.97-1.37c0.47-0.33,1.05-0.5,1.74-0.5c0.68,0,1.25,0.17,1.72,0.5s0.8,0.79,0.99,1.37H184.67z"/>
			<path class="st2" d="M203.26,128.56v-2.73h-2.28v1.34c0,0.39-0.07,0.75-0.22,1.1c-0.14,0.35-0.34,0.64-0.59,0.89
				c-0.25,0.25-0.54,0.44-0.88,0.59c-0.34,0.14-0.71,0.22-1.11,0.22c-0.39,0-0.75-0.07-1.09-0.22c-0.34-0.14-0.63-0.34-0.89-0.59
				c-0.26-0.25-0.46-0.54-0.6-0.89c-0.14-0.34-0.22-0.71-0.22-1.1c0-0.4,0.07-0.77,0.22-1.11c0.14-0.34,0.34-0.63,0.6-0.88
				c0.25-0.25,0.55-0.45,0.89-0.59c0.34-0.14,0.7-0.22,1.09-0.22h5.07v-2.28h-5.07c-0.7,0-1.37,0.13-1.99,0.39
				c-0.62,0.26-1.16,0.62-1.61,1.08c-0.46,0.46-0.81,0.99-1.08,1.6c-0.26,0.61-0.39,1.28-0.39,2c0,0.7,0.13,1.37,0.39,1.99
				s0.62,1.16,1.08,1.61c0.45,0.45,0.99,0.81,1.61,1.08c0.62,0.26,1.28,0.39,1.99,0.39c0.7,0,1.35-0.12,1.96-0.37
				c0.6-0.25,1.13-0.59,1.58-1.03c0.32,0.44,0.58,0.74,1.1,0.96c0.56,0.24,1.24,0.24,1.87,0.24v-2.07c-0.46,0-0.81-0.12-1.07-0.37
				C203.39,129.35,203.26,129,203.26,128.56z"/>
			<rect x="205.75" y="118.17" class="st2" width="2.28" height="13.86"/>
			<path class="st2" d="M212.58,118.17h-2.28v2.69h-1.24v2.28h1.24v4.55c0,0.68,0.11,1.3,0.33,1.86c0.22,0.57,0.54,1.05,0.94,1.44
				c0.41,0.39,0.9,0.7,1.47,0.92c0.57,0.22,1.21,0.33,1.91,0.33v-2.28c-0.77,0-1.36-0.19-1.77-0.58c-0.41-0.39-0.61-0.95-0.61-1.7
				v-4.55h2.38v-2.28h-2.38V118.17z"/>
			<path class="st2" d="M224.27,123.19c-0.38-0.41-0.83-0.72-1.36-0.95s-1.11-0.34-1.75-0.34c-0.52,0-1.01,0.08-1.47,0.24
				c-0.46,0.16-0.86,0.38-1.22,0.67v-4.63h-2.28v13.86h2.28v-5.55c0-0.7,0.22-1.27,0.65-1.69c0.43-0.42,1.01-0.63,1.73-0.63
				s1.29,0.21,1.72,0.63c0.43,0.42,0.64,0.98,0.64,1.69v5.55h2.28v-5.55c0-0.66-0.11-1.28-0.32-1.84
				C224.95,124.08,224.65,123.6,224.27,123.19z"/>
			<path class="st2" d="M238.99,119.96c-0.64-0.63-1.41-1.12-2.3-1.47c-0.89-0.35-1.87-0.53-2.93-0.53c-1.06,0-2.03,0.18-2.92,0.53
				c-0.88,0.35-1.65,0.84-2.29,1.47c-0.64,0.63-1.14,1.38-1.5,2.26c-0.36,0.88-0.54,1.84-0.54,2.89s0.18,2.01,0.54,2.88
				c0.36,0.87,0.86,1.62,1.5,2.26c0.64,0.64,1.4,1.13,2.29,1.48c0.88,0.35,1.85,0.53,2.92,0.53c1.05,0,2.01-0.18,2.9-0.54
				c0.88-0.36,1.65-0.86,2.3-1.49c0.65-0.63,1.16-1.39,1.52-2.27c0.36-0.88,0.55-1.82,0.55-2.85c0-1.05-0.18-2.01-0.54-2.89
				C240.13,121.34,239.63,120.59,238.99,119.96z M238.18,127.05c-0.24,0.59-0.57,1.11-0.99,1.54c-0.42,0.43-0.92,0.77-1.51,1.01
				c-0.59,0.24-1.22,0.36-1.91,0.36c-0.7,0-1.34-0.12-1.92-0.36c-0.58-0.24-1.08-0.58-1.5-1c-0.42-0.43-0.75-0.94-0.98-1.54
				c-0.23-0.6-0.35-1.25-0.35-1.96c0-0.72,0.12-1.37,0.35-1.97c0.23-0.59,0.56-1.1,0.98-1.53c0.42-0.43,0.92-0.76,1.5-1
				s1.22-0.36,1.92-0.36c0.7,0,1.35,0.12,1.94,0.36c0.59,0.24,1.09,0.58,1.51,1c0.42,0.43,0.75,0.94,0.98,1.53
				c0.23,0.59,0.35,1.25,0.35,1.97C238.54,125.81,238.42,126.46,238.18,127.05z"/>
			<path class="st2" d="M250.73,123.57c-0.46-0.45-0.99-0.81-1.61-1.08c-0.62-0.26-1.28-0.39-1.99-0.39h-5.07v1.43v0.85v11.59h2.28
				v-4.74c0.41,0.32,0.87,0.57,1.37,0.75c0.5,0.18,1.03,0.27,1.61,0.27c0.69,0,1.33-0.13,1.93-0.39c0.59-0.26,1.11-0.62,1.54-1.08
				c0.43-0.46,0.78-0.99,1.03-1.61c0.26-0.62,0.38-1.28,0.38-1.99c0-0.72-0.13-1.38-0.39-2
				C251.54,124.56,251.18,124.03,250.73,123.57z M249.7,128.27c-0.14,0.35-0.34,0.64-0.6,0.89c-0.26,0.25-0.55,0.44-0.89,0.59
				c-0.34,0.14-0.7,0.22-1.09,0.22c-0.4,0-0.77-0.07-1.11-0.22c-0.34-0.14-0.63-0.34-0.88-0.59c-0.25-0.25-0.44-0.54-0.59-0.89
				c-0.14-0.34-0.22-0.71-0.22-1.1v-2.79h2.79c0.39,0,0.75,0.07,1.09,0.22c0.34,0.14,0.63,0.34,0.89,0.59
				c0.25,0.25,0.45,0.54,0.6,0.88c0.14,0.34,0.22,0.71,0.22,1.11C249.92,127.56,249.85,127.92,249.7,128.27z"/>
			<path class="st4" d="M254.16,129.35c-0.41,0-0.76,0.14-1.03,0.41c-0.28,0.28-0.41,0.62-0.41,1.03c0,0.41,0.14,0.76,0.41,1.03
				c0.28,0.28,0.62,0.41,1.03,0.41c0.41,0,0.76-0.14,1.03-0.41c0.28-0.28,0.41-0.62,0.41-1.03c0-0.41-0.14-0.76-0.41-1.03
				C254.92,129.48,254.57,129.35,254.16,129.35z"/>
			<path class="st2" d="M261.44,130.09c-0.35-0.54-0.78-1-1.29-1.39c-0.52-0.39-1.08-0.72-1.68-0.99c-0.6-0.28-1.16-0.54-1.68-0.79
				c-0.52-0.25-0.95-0.5-1.29-0.75c-0.35-0.26-0.52-0.56-0.52-0.9c0-0.34,0.18-0.63,0.53-0.86c0.35-0.23,0.8-0.34,1.33-0.34
				c0.66,0,1.19,0.15,1.59,0.46c0.4,0.3,0.6,0.7,0.6,1.2h2.28c0-0.57-0.11-1.08-0.32-1.55c-0.21-0.47-0.51-0.87-0.89-1.21
				c-0.38-0.34-0.84-0.6-1.37-0.79c-0.53-0.19-1.12-0.28-1.77-0.28c-0.62,0-1.19,0.08-1.71,0.25c-0.52,0.17-0.97,0.4-1.34,0.7
				c-0.38,0.3-0.68,0.66-0.89,1.08c-0.21,0.41-0.32,0.86-0.32,1.34c0,0.68,0.17,1.25,0.52,1.71c0.34,0.46,0.78,0.86,1.29,1.19
				c0.52,0.33,1.08,0.62,1.68,0.88c0.6,0.25,1.16,0.52,1.68,0.8c0.52,0.28,0.95,0.58,1.29,0.92c0.34,0.34,0.52,0.76,0.52,1.27h2.28
				C261.96,131.28,261.79,130.63,261.44,130.09z"/>
		</g>
	</g>
	<g>
		<path class="st4" d="M154.04,129v8h-8C146.04,132.58,149.62,129,154.04,129z"/>
		<path class="st4" d="M162.04,121v8h-8C154.04,124.58,157.62,121,162.04,121z"/>
		<path class="st4" d="M146.04,121v-8h8C154.04,117.42,150.46,121,146.04,121z"/>
		<path class="st4" d="M138.04,129v-8h8C146.04,125.42,142.46,129,138.04,129z"/>
	</g>
</g>
</svg>
